<mxfile host="app.diagrams.net" agent="Mozilla/5.0 (Windows NT 10.0; Win64; x64) AppleWebKit/537.36 (KHTML, like Gecko) Chrome/131.0.0.0 Safari/537.36" version="24.9.1">
  <diagram name="Страница — 1" id="wkhUdUt3TekP5Xk2T5Rd">
    <mxGraphModel dx="3805" dy="546" grid="1" gridSize="10" guides="1" tooltips="1" connect="1" arrows="1" fold="1" page="1" pageScale="1" pageWidth="3000" pageHeight="827" math="0" shadow="0">
      <root>
        <mxCell id="0" />
        <mxCell id="1" parent="0" />
        <mxCell id="D-f4qOkVjQoHxAU3V64q-79" value="" style="edgeStyle=orthogonalEdgeStyle;rounded=0;orthogonalLoop=1;jettySize=auto;html=1;" edge="1" parent="1" source="D-f4qOkVjQoHxAU3V64q-80" target="D-f4qOkVjQoHxAU3V64q-81">
          <mxGeometry relative="1" as="geometry" />
        </mxCell>
        <mxCell id="D-f4qOkVjQoHxAU3V64q-80" value="&amp;nbsp;&amp;nbsp;&lt;div&gt;&lt;br&gt;&lt;/div&gt;&lt;div&gt;Nginx(sitefe)&lt;/div&gt;" style="rounded=0;whiteSpace=wrap;html=1;" vertex="1" parent="1">
          <mxGeometry x="-2900" y="360" width="100" height="80" as="geometry" />
        </mxCell>
        <mxCell id="D-f4qOkVjQoHxAU3V64q-81" value="&lt;div style=&quot;text-align: justify;&quot;&gt;&lt;span style=&quot;background-color: initial;&quot;&gt;&lt;br&gt;&lt;/span&gt;&lt;/div&gt;&lt;div style=&quot;text-align: justify;&quot;&gt;&lt;span style=&quot;background-color: initial;&quot;&gt;&lt;br&gt;&lt;/span&gt;&lt;/div&gt;&lt;div style=&quot;text-align: justify;&quot;&gt;&lt;span style=&quot;background-color: initial;&quot;&gt;Ingress app&lt;/span&gt;&lt;/div&gt;" style="rounded=0;whiteSpace=wrap;html=1;container=0;" vertex="1" parent="1">
          <mxGeometry x="-2760" y="360" width="120" height="80" as="geometry" />
        </mxCell>
        <mxCell id="D-f4qOkVjQoHxAU3V64q-82" value="" style="endArrow=classic;html=1;rounded=0;exitX=0.993;exitY=0.572;exitDx=0;exitDy=0;exitPerimeter=0;entryX=0;entryY=0.5;entryDx=0;entryDy=0;" edge="1" parent="1">
          <mxGeometry width="50" height="50" relative="1" as="geometry">
            <mxPoint x="-2640" y="400.3119999999999" as="sourcePoint" />
            <mxPoint x="-2600" y="400" as="targetPoint" />
          </mxGeometry>
        </mxCell>
        <mxCell id="D-f4qOkVjQoHxAU3V64q-83" value="" style="edgeStyle=orthogonalEdgeStyle;rounded=0;orthogonalLoop=1;jettySize=auto;html=1;" edge="1" parent="1" source="D-f4qOkVjQoHxAU3V64q-84" target="D-f4qOkVjQoHxAU3V64q-94">
          <mxGeometry relative="1" as="geometry" />
        </mxCell>
        <mxCell id="D-f4qOkVjQoHxAU3V64q-84" value="&lt;div&gt;&lt;br&gt;&lt;/div&gt;&lt;div&gt;&lt;br&gt;&lt;/div&gt;istio&lt;br&gt;VirtualService" style="rounded=0;whiteSpace=wrap;html=1;" vertex="1" parent="1">
          <mxGeometry x="-2600" y="360" width="120" height="80" as="geometry" />
        </mxCell>
        <mxCell id="D-f4qOkVjQoHxAU3V64q-85" value="" style="editableCssRules=.*;html=1;shape=image;verticalLabelPosition=bottom;labelBackgroundColor=#ffffff;verticalAlign=top;aspect=fixed;imageAspect=0;image=data:image/svg+xml,PHN2ZyB4bWxucz0iaHR0cDovL3d3dy53My5vcmcvMjAwMC9zdmciIHhtbG5zOnY9Imh0dHBzOi8vdmVjdGEuaW8vbmFubyIgd2lkdGg9IjE2MCIgaGVpZ2h0PSIyNDAiIHZpZXdCb3g9IjAgMCAxNjAgMjQwIj4mI3hhOwk8c3R5bGUgdHlwZT0idGV4dC9jc3MiPiYjeGE7CS5zdDB7ZmlsbDojNDY2YmIwO30mI3hhOwk8L3N0eWxlPiYjeGE7CTxwYXRoIGNsYXNzPSJzdDAiIGQ9Ik02MCAyNDBMMCAyMTBoMTYwem0wLTE2MEwwIDIwMGw2MC0xMHpNNzAgMHYxOTBsOTAgMTB6Ii8+JiN4YTs8L3N2Zz4=;fontColor=default;" vertex="1" parent="1">
          <mxGeometry x="-2552.75" y="363.32" width="22.75" height="35" as="geometry" />
        </mxCell>
        <mxCell id="D-f4qOkVjQoHxAU3V64q-86" value="" style="group;fillColor=#d5e8d4;gradientColor=#97d077;strokeColor=#82b366;gradientDirection=south;" vertex="1" connectable="0" parent="1">
          <mxGeometry x="-2400" y="240" width="120" height="80" as="geometry" />
        </mxCell>
        <mxCell id="D-f4qOkVjQoHxAU3V64q-87" value="&lt;div&gt;&lt;br&gt;&lt;/div&gt;&lt;div&gt;&lt;br&gt;&lt;/div&gt;service-canary" style="rounded=0;whiteSpace=wrap;html=1;fillStyle=solid;fillColor=#66FF66;" vertex="1" parent="D-f4qOkVjQoHxAU3V64q-86">
          <mxGeometry width="119.99999999999999" height="80" as="geometry" />
        </mxCell>
        <mxCell id="D-f4qOkVjQoHxAU3V64q-88" value="" style="aspect=fixed;sketch=0;html=1;dashed=0;whitespace=wrap;verticalLabelPosition=bottom;verticalAlign=top;fillColor=#2875E2;strokeColor=#ffffff;points=[[0.005,0.63,0],[0.1,0.2,0],[0.9,0.2,0],[0.5,0,0],[0.995,0.63,0],[0.72,0.99,0],[0.5,1,0],[0.28,0.99,0]];shape=mxgraph.kubernetes.icon2;kubernetesLabel=1;prIcon=svc" vertex="1" parent="D-f4qOkVjQoHxAU3V64q-86">
          <mxGeometry x="44.38" y="10" width="31.25" height="30" as="geometry" />
        </mxCell>
        <mxCell id="D-f4qOkVjQoHxAU3V64q-89" value="" style="edgeStyle=orthogonalEdgeStyle;rounded=0;orthogonalLoop=1;jettySize=auto;html=1;entryX=0;entryY=0.5;entryDx=0;entryDy=0;" edge="1" parent="1" target="D-f4qOkVjQoHxAU3V64q-87">
          <mxGeometry relative="1" as="geometry">
            <mxPoint x="-2475" y="280" as="sourcePoint" />
          </mxGeometry>
        </mxCell>
        <mxCell id="D-f4qOkVjQoHxAU3V64q-90" value="Cookie&lt;div&gt;&lt;br&gt;&lt;font style=&quot;font-size: 10px;&quot;&gt;type=canar&lt;/font&gt;&lt;font style=&quot;font-size: 10px;&quot;&gt;y&lt;/font&gt;&lt;/div&gt;" style="shape=hexagon;perimeter=hexagonPerimeter2;whiteSpace=wrap;html=1;size=0.25;fillColor=#d5e8d4;strokeColor=#82b366;" vertex="1" parent="1">
          <mxGeometry x="-2605" y="250" width="130" height="60" as="geometry" />
        </mxCell>
        <mxCell id="D-f4qOkVjQoHxAU3V64q-91" value="" style="aspect=fixed;sketch=0;html=1;dashed=0;whitespace=wrap;verticalLabelPosition=bottom;verticalAlign=top;fillColor=#2875E2;strokeColor=#ffffff;points=[[0.005,0.63,0],[0.1,0.2,0],[0.9,0.2,0],[0.5,0,0],[0.995,0.63,0],[0.72,0.99,0],[0.5,1,0],[0.28,0.99,0]];shape=mxgraph.kubernetes.icon2;kubernetesLabel=1;prIcon=ing;container=0;" vertex="1" parent="1">
          <mxGeometry x="-2715.63" y="367.59999999999997" width="32" height="30.72" as="geometry" />
        </mxCell>
        <mxCell id="D-f4qOkVjQoHxAU3V64q-92" value="" style="outlineConnect=0;dashed=0;verticalLabelPosition=bottom;verticalAlign=top;align=center;html=1;shape=mxgraph.aws3.classic_load_balancer;fillColor=#fa6800;fontColor=#000000;strokeColor=#C73500;fillOpacity=93;aspect=fixed;" vertex="1" parent="1">
          <mxGeometry x="-2865.5" y="367.6" width="31" height="32.4" as="geometry" />
        </mxCell>
        <mxCell id="D-f4qOkVjQoHxAU3V64q-93" value="" style="edgeStyle=orthogonalEdgeStyle;rounded=0;orthogonalLoop=1;jettySize=auto;html=1;entryX=0.004;entryY=0.623;entryDx=0;entryDy=0;entryPerimeter=0;" edge="1" parent="1" source="D-f4qOkVjQoHxAU3V64q-94">
          <mxGeometry relative="1" as="geometry">
            <mxPoint x="-2399.52" y="519.8399999999999" as="targetPoint" />
          </mxGeometry>
        </mxCell>
        <mxCell id="D-f4qOkVjQoHxAU3V64q-94" value="Not cookie&lt;div&gt;&lt;br&gt;&lt;font style=&quot;font-size: 10px;&quot;&gt;type!=canary&lt;/font&gt;&lt;/div&gt;" style="shape=hexagon;perimeter=hexagonPerimeter2;whiteSpace=wrap;html=1;size=0.25;fillColor=#f8cecc;strokeColor=#b85450;" vertex="1" parent="1">
          <mxGeometry x="-2605" y="490" width="130" height="60" as="geometry" />
        </mxCell>
        <mxCell id="D-f4qOkVjQoHxAU3V64q-95" value="" style="endArrow=classic;html=1;rounded=0;entryX=0.5;entryY=1;entryDx=0;entryDy=0;exitX=0.5;exitY=0;exitDx=0;exitDy=0;" edge="1" parent="1" source="D-f4qOkVjQoHxAU3V64q-84" target="D-f4qOkVjQoHxAU3V64q-90">
          <mxGeometry width="50" height="50" relative="1" as="geometry">
            <mxPoint x="-2505" y="350" as="sourcePoint" />
            <mxPoint x="-2380" y="380" as="targetPoint" />
            <Array as="points" />
          </mxGeometry>
        </mxCell>
        <mxCell id="D-f4qOkVjQoHxAU3V64q-96" value="" style="group;fillColor=default;" vertex="1" connectable="0" parent="1">
          <mxGeometry x="-2400" y="480" width="120" height="80" as="geometry" />
        </mxCell>
        <mxCell id="D-f4qOkVjQoHxAU3V64q-97" value="&lt;div&gt;&lt;br&gt;&lt;/div&gt;&lt;div&gt;&lt;br&gt;&lt;/div&gt;service-primary" style="rounded=0;whiteSpace=wrap;html=1;gradientColor=none;fillColor=#66B2FF;" vertex="1" parent="D-f4qOkVjQoHxAU3V64q-96">
          <mxGeometry width="119.99999999999999" height="80" as="geometry" />
        </mxCell>
        <mxCell id="D-f4qOkVjQoHxAU3V64q-98" value="" style="aspect=fixed;sketch=0;html=1;dashed=0;whitespace=wrap;verticalLabelPosition=bottom;verticalAlign=top;fillColor=#2875E2;strokeColor=#ffffff;points=[[0.005,0.63,0],[0.1,0.2,0],[0.9,0.2,0],[0.5,0,0],[0.995,0.63,0],[0.72,0.99,0],[0.5,1,0],[0.28,0.99,0]];shape=mxgraph.kubernetes.icon2;kubernetesLabel=1;prIcon=svc" vertex="1" parent="D-f4qOkVjQoHxAU3V64q-96">
          <mxGeometry x="44.38" y="10" width="31.25" height="30" as="geometry" />
        </mxCell>
        <mxCell id="D-f4qOkVjQoHxAU3V64q-101" value="" style="edgeStyle=orthogonalEdgeStyle;rounded=0;orthogonalLoop=1;jettySize=auto;html=1;" edge="1" parent="1">
          <mxGeometry relative="1" as="geometry">
            <mxPoint x="-2940" y="400" as="sourcePoint" />
            <mxPoint x="-2900" y="400" as="targetPoint" />
          </mxGeometry>
        </mxCell>
        <mxCell id="D-f4qOkVjQoHxAU3V64q-102" value="" style="group;fillColor=#d5e8d4;gradientColor=#97d077;strokeColor=#82b366;gradientDirection=south;" vertex="1" connectable="0" parent="1">
          <mxGeometry x="-2210" y="240" width="120" height="80" as="geometry" />
        </mxCell>
        <mxCell id="D-f4qOkVjQoHxAU3V64q-103" value="&lt;div&gt;&lt;br&gt;&lt;/div&gt;&lt;div&gt;&lt;br&gt;&lt;/div&gt;service-canary" style="rounded=0;whiteSpace=wrap;html=1;fillStyle=solid;fillColor=#66FF66;" vertex="1" parent="D-f4qOkVjQoHxAU3V64q-102">
          <mxGeometry width="119.99999999999999" height="80" as="geometry" />
        </mxCell>
        <mxCell id="D-f4qOkVjQoHxAU3V64q-104" value="" style="aspect=fixed;sketch=0;html=1;dashed=0;whitespace=wrap;verticalLabelPosition=bottom;verticalAlign=top;fillColor=#2875E2;strokeColor=#ffffff;points=[[0.005,0.63,0],[0.1,0.2,0],[0.9,0.2,0],[0.5,0,0],[0.995,0.63,0],[0.72,0.99,0],[0.5,1,0],[0.28,0.99,0]];shape=mxgraph.kubernetes.icon2;kubernetesLabel=1;prIcon=svc" vertex="1" parent="D-f4qOkVjQoHxAU3V64q-102">
          <mxGeometry x="44.38" y="10" width="31.25" height="30" as="geometry" />
        </mxCell>
        <mxCell id="D-f4qOkVjQoHxAU3V64q-107" value="" style="group;fillColor=default;" vertex="1" connectable="0" parent="1">
          <mxGeometry x="-2200" y="480" width="120" height="80" as="geometry" />
        </mxCell>
        <mxCell id="D-f4qOkVjQoHxAU3V64q-108" value="&lt;div&gt;&lt;br&gt;&lt;/div&gt;&lt;div&gt;&lt;br&gt;&lt;/div&gt;service-primary" style="rounded=0;whiteSpace=wrap;html=1;gradientColor=none;fillColor=#66B2FF;" vertex="1" parent="D-f4qOkVjQoHxAU3V64q-107">
          <mxGeometry width="119.99999999999999" height="80" as="geometry" />
        </mxCell>
        <mxCell id="D-f4qOkVjQoHxAU3V64q-109" value="" style="aspect=fixed;sketch=0;html=1;dashed=0;whitespace=wrap;verticalLabelPosition=bottom;verticalAlign=top;fillColor=#2875E2;strokeColor=#ffffff;points=[[0.005,0.63,0],[0.1,0.2,0],[0.9,0.2,0],[0.5,0,0],[0.995,0.63,0],[0.72,0.99,0],[0.5,1,0],[0.28,0.99,0]];shape=mxgraph.kubernetes.icon2;kubernetesLabel=1;prIcon=svc" vertex="1" parent="D-f4qOkVjQoHxAU3V64q-107">
          <mxGeometry x="44.38" y="10" width="31.25" height="30" as="geometry" />
        </mxCell>
      </root>
    </mxGraphModel>
  </diagram>
</mxfile>
